# xmcd
#
# Track frame offsets:
#	150
#	19980
#	39204
#	54553
#	64732
#	82496
#	103856
#	121081
#	137302
#	157128
#	176352
#	191701
#	201880
#	219644
#	241004
#	258229
#	285850
#
# Disc length: 3823 seconds
#
# Revision: 2
# Processed by: cddbd v1.5.2PL0 Copyright (c) Steve Scherf et al.
# Submitted via: audiograbber 1.83.01
#
DISCID=ed0eed11
DTITLE=Sound Choice - SC2478
DYEAR=1900
DGENRE=
TTITLE0=Charles, Ray - I Can't Stop Loving You
TTITLE1=Duets Ray Charles and Willie Nelson - Seven Spanish Angels
TTITLE2=Charles, Ray - Let's Get Stoned
TTITLE3=Charles, Ray - Hit The Road Jack
TTITLE4=Charles, Ray - Georgia On My Mind
TTITLE5=Charles, Ray - What'd I Say
TTITLE6=Charles, Ray - America The Beautiful
TTITLE7=Charles, Ray - Drown In My Own Tears
TTITLE8=Ray Charles - I Can't Stop Loving You
TTITLE9=Ray Charles and Willie Nelson - Seven Spanish Angels
TTITLE10=Ray Charles - Let's Get Stoned
TTITLE11=Ray Charles - Hit The Road Jack
TTITLE12=Ray Charles - Georgia On My Mind
TTITLE13=Ray Charles - What'd I Say
TTITLE14=Ray Charles - America The Beautiful
TTITLE15=Ray Charles - Drown In My Own Tears
TTITLE16=xx - Data Track
EXTD=
EXTT0=
EXTT1=
EXTT2=
EXTT3=
EXTT4=
EXTT5=
EXTT6=
EXTT7=
EXTT8=
EXTT9=
EXTT10=
EXTT11=
EXTT12=
EXTT13=
EXTT14=
EXTT15=
EXTT16=
PLAYORDER=
